<?xml version="1.0" encoding="UTF-8"?>
<svg version="1.1" xmlns="http://www.w3.org/2000/svg" width="512" height="512">
<path d="M0 0 C4.32226315 2.28345978 6.75263752 4.07041257 8.3125 8.75 C8.39744728 11.40894107 8.42844796 14.04085377 8.41015625 16.69921875 C8.40803383 17.85814384 8.40803383 17.85814384 8.40586853 19.04048157 C8.40027466 21.50619389 8.38772333 23.97181515 8.375 26.4375 C8.36998421 28.11002473 8.36542144 29.78255088 8.36132812 31.45507812 C8.35030724 35.55342046 8.33304684 39.65169479 8.3125 43.75 C9.48510376 44.19001343 9.48510376 44.19001343 10.68139648 44.63891602 C13.68486336 45.90724465 15.18921723 47.2844426 17.375 49.6875 C18.02597656 50.37714844 18.67695313 51.06679687 19.34765625 51.77734375 C24.68238365 59.84837268 25.89618445 68.05098889 25.703125 77.54296875 C25.69746521 78.61501053 25.69180542 79.68705231 25.68597412 80.7915802 C25.66380514 84.17403188 25.61364562 87.55537525 25.5625 90.9375 C25.54240983 93.24803144 25.52416351 95.5585797 25.5078125 97.86914062 C25.46400428 103.49651271 25.39511347 109.12306927 25.3125 114.75 C30.9225 114.75 36.5325 114.75 42.3125 114.75 C42.29155273 113.29182861 42.27060547 111.83365723 42.24902344 110.33129883 C42.1765829 104.91749912 42.13068495 99.50374219 42.09277344 94.08959961 C42.07266735 91.74707839 42.04537834 89.4046073 42.01074219 87.06225586 C41.96218159 83.69372177 41.93952078 80.32585169 41.921875 76.95703125 C41.90122986 75.91102249 41.88058472 74.86501373 41.85931396 73.78730774 C41.85707307 66.51377633 41.85707307 66.51377633 44.15332031 62.6628418 C50.0178544 57.46738447 55.68065775 57.26436941 63.28125 57.46484375 C68.4559621 57.95164012 71.14305481 59.48573493 74.625 63.25 C76.9537473 66.699996 77.43715658 69.25034714 77.42602539 73.31323242 C77.42594986 74.23396042 77.42587433 75.15468842 77.42579651 76.10331726 C77.42063522 77.09402725 77.41547394 78.08473724 77.41015625 79.10546875 C77.40803383 80.63062859 77.40803383 80.63062859 77.40586853 82.18659973 C77.40026707 85.43692964 77.38771432 88.68719088 77.375 91.9375 C77.36998519 94.13997296 77.36542225 96.34244701 77.36132812 98.54492188 C77.35029716 103.94664107 77.33303154 109.34830889 77.3125 114.75 C81.6025 114.75 85.8925 114.75 90.3125 114.75 C90.28893433 112.01746948 90.28893433 112.01746948 90.26489258 109.22973633 C90.2164667 103.20279164 90.18202286 97.17590213 90.15706348 91.14882374 C90.14142467 87.49550802 90.12021952 83.84240329 90.08618164 80.18920898 C90.05352375 76.66194784 90.03563356 73.13488932 90.02786827 69.60748863 C90.01964867 67.61055692 89.99623939 65.61370642 89.97261047 63.61689758 C89.97227058 61.78556526 89.97227058 61.78556526 89.97192383 59.91723633 C89.96193108 58.30840324 89.96193108 58.30840324 89.95173645 56.66706848 C90.36911438 53.29222644 91.29309716 51.46573595 93.3125 48.75 C100.57163552 43.66860513 108.10708731 42.02693094 116.88671875 43.21484375 C122.59412198 44.47396491 127.19394702 46.55684752 130.45828247 51.60536194 C132.45699745 56.62342825 131.78725434 62.36858196 131.703125 67.6796875 C131.69565607 69.03873865 131.68996622 70.39780064 131.68597412 71.75686646 C131.67076868 75.31797501 131.63153264 78.87842142 131.5871582 82.43927002 C131.54609436 86.07921392 131.52793954 89.71926577 131.5078125 93.359375 C131.46503204 100.4898527 131.39684387 107.61988291 131.3125 114.75 C133.18168091 114.72643433 133.18168091 114.72643433 135.08862305 114.70239258 C139.71974198 114.64801927 144.35083278 114.61362289 148.98217773 114.58520508 C150.98515572 114.57013535 152.9881008 114.5496759 154.9909668 114.52368164 C157.87296681 114.48721873 160.75452984 114.47025539 163.63671875 114.45703125 C164.52961105 114.44154739 165.42250336 114.42606354 166.342453 114.41011047 C171.14147798 114.40881668 174.45289763 114.55416912 178.3125 117.75 C181.12994751 123.13804916 180.64384433 129.2515366 180.625 135.1875 C180.64111328 136.19876953 180.65722656 137.21003906 180.67382812 138.25195312 C180.6777047 144.19474075 180.22325945 148.52628989 177.3125 153.75 C174.35998618 156.01359393 171.93173005 155.80375094 168.3125 155.75 C168.31388269 156.97005187 168.31388269 156.97005187 168.31529331 158.21475124 C168.33734687 177.97653613 168.35391073 197.7383189 168.36431217 217.50011349 C168.36947551 227.05663939 168.37651892 236.61315709 168.38793945 246.16967773 C168.39788514 254.49602007 168.40435315 262.82235648 168.40658849 271.14870459 C168.4078958 275.56024857 168.41098288 279.97177557 168.41823006 284.38331413 C168.42498846 288.53070387 168.42711733 292.67806953 168.42560768 296.82546425 C168.42588409 298.3521373 168.42789028 299.87881112 168.43170547 301.40547943 C168.43663994 303.48083459 168.43549923 305.55609742 168.43275452 307.63145447 C168.43413721 309.37779128 168.43413721 309.37779128 168.43554783 311.15940762 C168.3125 313.75 168.3125 313.75 167.3125 314.75 C165.609835 314.84908553 163.90302542 314.87739666 162.1974802 314.87863445 C160.52431385 314.88347112 160.52431385 314.88347112 158.81734616 314.8884055 C157.57651978 314.8868569 156.33569341 314.8853083 155.05726624 314.88371277 C153.75108619 314.88597833 152.44490614 314.88824388 151.09914488 314.89057809 C147.45675556 314.89672645 143.81438909 314.89655895 140.17199576 314.89538372 C136.25032609 314.89518047 132.3286639 314.90069113 128.40699768 314.90544128 C120.71751598 314.91376496 113.02804194 314.9164969 105.33855612 314.91705366 C99.0914555 314.917528 92.84435743 314.91957864 86.59725761 314.92275429 C68.90528671 314.93156548 51.21332189 314.93617293 33.52134878 314.93542381 C32.56660105 314.93538386 31.61185331 314.9353439 30.62817383 314.93530273 C29.19431392 314.93524141 29.19431392 314.93524141 27.73148715 314.93517885 C12.23262751 314.93477223 -3.26620786 314.94434465 -18.76506048 314.9584411 C-34.65985795 314.97278419 -50.55464357 314.97971243 -66.44944769 314.97884732 C-75.38094549 314.97851464 -84.31241784 314.98129279 -93.24390984 314.99202538 C-100.84739908 315.00110324 -108.45085134 315.0033281 -116.05434363 314.99651595 C-119.93706014 314.99323696 -123.81970559 314.99324335 -127.70241547 315.0018692 C-131.90342574 315.01110657 -136.10426942 315.00499428 -140.30528259 314.99723816 C-141.54387824 315.00238172 -142.7824739 315.00752529 -144.05860275 315.01282471 C-145.17665473 315.00822592 -146.29470672 315.00362712 -147.44663906 314.99888897 C-148.41742159 314.99910634 -149.38820413 314.99932371 -150.38840431 314.99954766 C-152.6875 314.75 -152.6875 314.75 -154.6875 312.75 C-154.93359566 310.05197716 -154.93359566 310.05197716 -154.92800903 306.54916382 C-154.92971788 305.90633725 -154.93142673 305.26351068 -154.93318737 304.60120451 C-154.93649328 302.4376378 -154.92546078 300.2743782 -154.91455078 298.11083984 C-154.9139869 296.56376655 -154.91430277 295.01669273 -154.91543579 293.46961975 C-154.91601122 289.26114815 -154.90422621 285.05278982 -154.89028788 280.84434462 C-154.87781215 276.44942767 -154.87661252 272.05450833 -154.87423706 267.65957642 C-154.86801298 259.33332398 -154.85158965 251.00712386 -154.83153808 242.68089449 C-154.8092079 233.20340579 -154.79819291 223.72591462 -154.78814721 214.24840617 C-154.7672242 194.74890775 -154.73203024 175.24945808 -154.6875 155.75 C-156.34561707 155.56890686 -156.34561707 155.56890686 -158.03723145 155.38415527 C-161.6875 154.75 -161.6875 154.75 -164.09179688 152.60351562 C-166.00500461 149.18222248 -166.20351287 147.00098475 -166.21875 143.09375 C-166.22390625 141.82402344 -166.2290625 140.55429687 -166.234375 139.24609375 C-166.21117187 137.26802734 -166.21117187 137.26802734 -166.1875 135.25 C-166.20296875 133.93128906 -166.2184375 132.61257813 -166.234375 131.25390625 C-166.22921875 129.98417969 -166.2240625 128.71445312 -166.21875 127.40625 C-166.21423828 126.24931641 -166.20972656 125.09238281 -166.20507812 123.90039062 C-165.58479743 120.12487079 -164.33197489 118.46361149 -161.6875 115.75 C-159.23474859 114.5236243 -157.6369219 114.63584686 -154.8984375 114.65234375 C-153.95742187 114.65556641 -153.01640625 114.65878906 -152.046875 114.66210938 C-151.06203125 114.67048828 -150.0771875 114.67886719 -149.0625 114.6875 C-148.06992188 114.69201172 -147.07734375 114.69652344 -146.0546875 114.70117188 C-143.5988984 114.71297855 -141.14322896 114.729446 -138.6875 114.75 C-138.70321045 113.85168457 -138.7189209 112.95336914 -138.73510742 112.02783203 C-138.78619255 108.69932308 -138.82382785 105.37122973 -138.85229492 102.04248047 C-138.86739483 100.60100742 -138.88787658 99.15958041 -138.91381836 97.71826172 C-138.9501513 95.64799657 -138.96721329 93.57833793 -138.98046875 91.5078125 C-138.9961792 90.2614502 -139.01188965 89.01508789 -139.02807617 87.73095703 C-138.91568604 86.74724121 -138.8032959 85.76352539 -138.6875 84.75 C-134.81834816 82.17056544 -131.61868996 82.46922617 -127.1328125 82.49121094 C-126.25937195 82.4877063 -125.3859314 82.48420166 -124.48602295 82.48059082 C-121.59476812 82.47177815 -118.70375738 82.47762104 -115.8125 82.484375 C-113.80615186 82.48302822 -111.79980405 82.48108757 -109.79345703 82.47857666 C-105.58688248 82.47562603 -101.38039282 82.47992112 -97.17382812 82.48925781 C-91.77651208 82.50065228 -86.37939493 82.49409249 -80.98208618 82.48211288 C-76.83860775 82.47489267 -72.69517662 82.47718296 -68.55169678 82.48236847 C-66.56134009 82.48370452 -64.57097914 82.48205881 -62.58062744 82.47740936 C-59.80103139 82.47234152 -57.02175937 82.48005804 -54.2421875 82.49121094 C-53.41612 82.48716248 -52.59005249 82.48311401 -51.73895264 82.47894287 C-47.86570209 82.5077962 -45.9856769 82.5512154 -42.6875 84.75 C-42.34692383 87.73095703 -42.34692383 87.73095703 -42.39453125 91.5078125 C-42.39877609 92.17086395 -42.40302094 92.83391541 -42.40739441 93.51705933 C-42.42420029 95.63678441 -42.46185299 97.75556188 -42.5 99.875 C-42.51504451 101.31118419 -42.52873332 102.74738328 -42.54101562 104.18359375 C-42.5741091 107.70603764 -42.6259032 111.22792636 -42.6875 114.75 C-41.3675 114.75 -40.0475 114.75 -38.6875 114.75 C-38.69638245 114.13105362 -38.70526489 113.51210724 -38.7144165 112.87440491 C-38.80327753 106.40130905 -38.86339452 99.92838799 -38.90722656 93.45483398 C-38.92727552 91.04265295 -38.95452192 88.63052011 -38.98925781 86.21850586 C-39.03807051 82.74060127 -39.06053683 79.26334228 -39.078125 75.78515625 C-39.09877014 74.71604507 -39.11941528 73.6469339 -39.14068604 72.54542542 C-39.14349055 63.07360113 -36.23884475 54.77056524 -29.6875 47.75 C-28.49705322 46.99319343 -27.28935489 46.26294255 -26.06713867 45.55859375 C-22.91833193 43.35621728 -22.7408129 42.99570432 -21.86450195 38.95703125 C-21.85081178 37.49210906 -21.8731764 36.02654139 -21.92578125 34.5625 C-21.92297653 33.78237549 -21.92017181 33.00225098 -21.9172821 32.19848633 C-21.91201703 29.71424124 -21.95253206 27.23375403 -22 24.75 C-22.03155754 22.26683137 -22.05277202 19.78488987 -22.05058289 17.30151367 C-22.05071225 15.75986665 -22.07077503 14.21805401 -22.11360168 12.67700195 C-22.12844535 9.04131886 -21.8197119 6.96105549 -19.87182617 3.8515625 C-14.06971746 -1.7307055 -7.41372601 -2.51312746 0 0 Z " fill="#050301" transform="translate(246.6875,170.25)"/>
<path d="M0 0 C100.98 0 201.96 0 306 0 C306 49.83 306 99.66 306 151 C290.49 151 274.98 151 259 151 C259 124.93 259 98.86 259 72 C266.26 71.67 273.52 71.34 281 71 C285.12403473 69.35143175 285.12403473 69.35143175 287 66 C287.46659612 61.86925197 287.37034014 57.71676149 287.375 53.5625 C287.39949219 52.41716797 287.42398437 51.27183594 287.44921875 50.09179688 C287.45308594 48.99029297 287.45695312 47.88878906 287.4609375 46.75390625 C287.46915527 45.74658447 287.47737305 44.7392627 287.48583984 43.70141602 C286.86964672 40.27519646 285.70039456 39.13020267 283 37 C279.46783219 35.82261073 276.25554034 35.82916796 272.57861328 35.80712891 C271.82542816 35.79895142 271.07224304 35.79077393 270.29623413 35.78234863 C267.80426829 35.75753987 265.31235916 35.74099203 262.8203125 35.7265625 C261.54299067 35.71857698 261.54299067 35.71857698 260.23986435 35.71043015 C255.73430024 35.68372073 251.22876365 35.66433708 246.72314453 35.64990234 C242.99438003 35.63655102 239.26616121 35.60867393 235.53759766 35.56787109 C231.03424162 35.51859086 226.53138136 35.49378745 222.02776718 35.48667526 C220.31253522 35.4799585 218.59731451 35.46472527 216.88223648 35.44078445 C214.48096203 35.40917201 212.08160358 35.40908903 209.68017578 35.41650391 C208.97350769 35.40009857 208.2668396 35.38369324 207.53875732 35.36679077 C203.65510137 35.41582548 202.11857124 35.90199495 199.08248901 38.41146851 C195.2194136 43.21326689 195.74782741 47.27356429 195.6875 53.25 C195.65849609 54.19230469 195.62949219 55.13460937 195.59960938 56.10546875 C195.54527263 62.06579184 196.01236286 65.47229326 200 70 C207.18021974 73.59010987 215.98055056 71.63547957 224 72 C224 98.07 224 124.14 224 151 C182.75 151 141.5 151 99 151 C99 124.93 99 98.86 99 72 C111.375 71.505 111.375 71.505 124 71 C128.88495525 68.67748574 128.88495525 68.67748574 130 66 C130.29654768 61.88105496 130.27802033 57.75336582 130.3125 53.625 C130.34150391 52.47515625 130.37050781 51.3253125 130.40039062 50.140625 C130.40876953 49.03460938 130.41714844 47.92859375 130.42578125 46.7890625 C130.44036377 45.77537598 130.45494629 44.76168945 130.4699707 43.71728516 C129.87728822 40.29050282 128.66290812 39.15821035 126 37 C123.74004744 35.87002372 122.5049563 35.86753042 119.99674988 35.85282898 C118.74134148 35.84209602 118.74134148 35.84209602 117.46057129 35.83114624 C116.54054321 35.82845734 115.62051514 35.82576843 114.67260742 35.82299805 C113.70498978 35.81642685 112.73737213 35.80985565 111.74043274 35.80308533 C108.52877735 35.78332638 105.31716876 35.77168432 102.10546875 35.76171875 C101.01028742 35.75764322 99.91510609 35.7535677 98.78673744 35.74936867 C92.99088351 35.72849746 87.19505333 35.71419993 81.39916992 35.70483398 C75.40667112 35.69376366 69.41454305 35.65935929 63.42217541 35.61966228 C58.81967977 35.59354276 54.2172731 35.58514631 49.61470985 35.58155251 C47.4054851 35.57667497 45.19626461 35.56502798 42.98711205 35.54651451 C39.89629947 35.52222136 36.80645457 35.52307027 33.71557617 35.5300293 C32.80162079 35.51721924 31.88766541 35.50440918 30.9460144 35.49121094 C26.76254806 35.52557252 24.57600855 35.63972584 20.95527649 37.90437317 C16.7573541 42.4036237 17.81605673 47.51350511 17.8125 53.375 C17.79413086 54.95667969 17.79413086 54.95667969 17.77539062 56.5703125 C17.77345703 57.58609375 17.77152344 58.601875 17.76953125 59.6484375 C17.76336792 61.04328369 17.76336792 61.04328369 17.75708008 62.46630859 C18.01635952 65.17063222 18.51674714 66.7360715 20 69 C28.0860754 74.39071693 39.28892693 71.62649719 49 72 C49 98.07 49 124.14 49 151 C32.83 151 16.66 151 0 151 C0 101.17 0 51.34 0 0 Z " fill="#B5802B" transform="translate(101,326)"/>
<path d="M0 0 C1.17790936 -0.00981429 2.35581872 -0.01962858 3.5694223 -0.02974027 C4.85948825 -0.02013527 6.14955419 -0.01053026 7.47871304 -0.00063419 C8.86611626 -0.0045272 10.25351551 -0.01016764 11.64090532 -0.01740509 C15.45295673 -0.03217794 19.26459584 -0.02196793 23.07663405 -0.00766838 C27.18779299 0.00342713 31.29889342 -0.00849641 35.41004848 -0.01751041 C43.4633323 -0.03145424 51.51645947 -0.02387848 59.56973583 -0.00883483 C68.9439128 0.00801094 78.3180506 0.00481685 87.69223803 0.00107109 C104.41507564 -0.0048095 121.137838 0.00937231 137.86065578 0.03401852 C154.09603604 0.05794371 170.33131575 0.06502154 186.56671047 0.05452633 C204.23796346 0.04312342 221.90916992 0.04117899 239.58042234 0.05562443 C241.46379053 0.0571503 243.34715873 0.05867066 245.23052692 0.06018543 C246.15723019 0.06094325 247.08393345 0.06170106 248.03871863 0.06248184 C254.5766773 0.06722922 261.11461523 0.06537004 267.65257359 0.06112003 C275.61679069 0.05619925 283.58091263 0.06215149 291.54510791 0.08201433 C295.61039387 0.09190262 299.67553476 0.09697494 303.74082851 0.08912182 C307.4596822 0.08208476 311.17824267 0.0888229 314.89705759 0.10672545 C316.88513886 0.1127102 318.87324748 0.10392479 320.86131626 0.09467894 C322.62426868 0.10733885 322.62426868 0.10733885 324.4228363 0.12025452 C325.43929531 0.12128365 326.45575431 0.12231278 327.5030151 0.12337309 C330.58162605 0.56232757 331.93658696 1.34175227 334.14849758 3.50057125 C335.24961447 6.80392191 335.35076286 9.39889262 335.39849758 12.87557125 C335.42427883 13.99705563 335.45006008 15.11854 335.47662258 16.27400875 C335.08704706 20.10483472 333.89040525 22.75866358 331.14849758 25.50057125 C329.29480147 25.5879477 327.43782217 25.60755278 325.58209133 25.5982275 C324.4573843 25.59500484 323.33267727 25.59178219 322.17388821 25.58846188 C320.9898843 25.58008297 319.80588039 25.57170406 318.58599758 25.56307125 C317.39812649 25.55855953 316.21025539 25.55404781 314.98638821 25.54939938 C312.04037532 25.537568 309.09446077 25.52108412 306.14849758 25.50057125 C305.99270253 31.59933038 305.9194226 37.69205591 305.91656399 43.79280758 C305.90469318 45.85945173 305.87180045 47.92610212 305.81597805 49.99202633 C305.42611247 65.1489704 307.73152444 74.27035808 317.71368313 85.81743526 C319.55061187 87.97227896 321.14777787 90.25495162 322.73443508 92.5982275 C323.21009914 93.27434078 323.68576321 93.95045406 324.17584133 94.64705563 C325.09857966 95.95894882 326.02041072 97.27148048 326.94146633 98.58455563 C329.84930999 102.71401404 332.84876961 106.74019814 335.98492336 110.70003414 C337.71631945 113.37922973 337.73515441 115.42062289 337.14849758 118.50057125 C334.35227176 121.29679707 332.6276844 120.75415616 328.71099758 120.75936031 C328.05067532 120.76286495 327.39035305 120.76636959 326.71002102 120.76998043 C324.52274026 120.77879806 322.33578175 120.77294868 320.14849758 120.76619625 C318.63156986 120.7675429 317.11464257 120.76948342 315.59771633 120.77199459 C312.416685 120.77494589 309.23576589 120.77064809 306.05474758 120.76131344 C301.97221856 120.74991882 297.88995249 120.75647827 293.80743313 120.76845837 C290.674519 120.77567686 287.54166747 120.77338911 284.40875149 120.76820278 C282.90321732 120.76686625 281.39767751 120.76851413 279.89214993 120.77316189 C277.78994546 120.77822704 275.68817 120.77051752 273.58599758 120.75936031 C272.38845852 120.75776913 271.19091946 120.75617794 269.95709133 120.75453854 C267.14849758 120.50057125 267.14849758 120.50057125 265.14849758 118.50057125 C264.65784878 115.57801103 264.61874473 113.46510803 266.07183743 110.81941891 C267.42945422 108.92493364 268.86180733 107.11835087 270.33599758 105.31307125 C271.44000805 103.90584898 272.54011449 102.49555719 273.63677883 101.0826025 C274.21250637 100.34219723 274.78823391 99.60179195 275.38140774 98.83895016 C278.98061589 94.07614058 282.27454741 89.09985166 285.60626125 84.14827633 C286.11262112 83.39828365 286.61898098 82.64829098 287.14068508 81.87557125 C287.79593166 80.89717281 287.79593166 80.89717281 288.46441555 79.89900875 C290.14849758 77.50057125 290.14849758 77.50057125 291.64370632 75.81270504 C296.30173278 70.3246098 297.02415754 66.18151822 296.95318508 59.09432125 C296.97360867 57.80896481 296.97360867 57.80896481 296.99444485 56.49764156 C297.03621326 53.33221221 297.02693757 50.1662743 297.02349758 47.00057125 C297.06474758 39.90557125 297.10599758 32.81057125 297.14849758 25.50057125 C268.43849758 25.50057125 239.72849758 25.50057125 210.14849758 25.50057125 C209.99381008 35.89557125 209.99381008 35.89557125 209.83599758 46.50057125 C209.76985256 48.65201656 209.70370754 50.80346188 209.63555813 53.0201025 C209.53390661 65.64678099 211.95541449 72.9965536 220.80157375 82.11336422 C221.36109234 82.6688142 221.92061092 83.22426418 222.49708462 83.79654598 C225.16487662 86.54933107 227.45550996 89.57828432 229.77349758 92.62557125 C232.56613006 96.22317721 235.37950176 99.79544759 238.27740383 103.309165 C238.78900051 103.93742184 239.30059719 104.56567867 239.8276968 105.21297359 C240.80789347 106.41529317 241.79735791 107.610137 242.79742336 108.79598141 C244.81578527 111.29099351 246.08281867 113.07215192 246.57427883 116.277915 C246.14849758 118.50057125 246.14849758 118.50057125 244.14849758 120.50057125 C241.69006836 120.69876407 239.34430159 120.77339083 236.88482571 120.75936031 C235.76266911 120.76461727 235.76266911 120.76461727 234.61784267 120.76998043 C232.13838399 120.77880215 229.6592093 120.77294714 227.17974758 120.76619625 C225.46103771 120.76754278 223.74232821 120.7694832 222.02361965 120.77199459 C218.41888718 120.77494645 214.81425372 120.77064626 211.20953274 120.76131344 C206.58220698 120.74991884 201.95511322 120.75647799 197.32779598 120.76845837 C193.77797596 120.77567532 190.22821121 120.7733898 186.67838955 120.76820278 C184.97189717 120.76686583 183.26539981 120.7685156 181.55891323 120.77316189 C179.17652953 120.77822447 176.79452483 120.77052091 174.41216946 120.75936031 C173.34765812 120.76543301 173.34765812 120.76543301 172.2616415 120.77162838 C167.37702664 120.72910031 167.37702664 120.72910031 165.14849758 118.50057125 C164.54071761 115.81175264 164.72882173 114.17216979 166.19781399 111.82137203 C167.72800523 109.84640095 169.32579178 107.95202375 170.96099758 106.06307125 C172.16385606 104.63034628 173.36566171 103.1967368 174.56646633 101.76229 C175.17152004 101.04605465 175.77657375 100.3298193 176.39996243 99.59187984 C178.92523509 96.57156629 181.35432184 93.48099895 183.77349758 90.37557125 C189.22055369 83.40840646 194.68464202 76.45456924 200.14849758 69.50057125 C200.47849758 54.98057125 200.80849758 40.46057125 201.14849758 25.50057125 C146.36849758 25.50057125 91.58849758 25.50057125 35.14849758 25.50057125 C34.59685617 66.52124095 34.59685617 66.52124095 53.64849758 91.50057125 C54.73621761 92.840025 55.82344709 94.17987722 56.91021633 95.5201025 C59.06510714 98.17552602 61.23696601 100.81584324 63.41802883 103.44979 C64.43290375 104.69543422 65.44725087 105.94150869 66.46099758 107.18807125 C66.93537258 107.75203609 67.40974758 108.31600094 67.89849758 108.89705563 C69.88320175 111.36154564 71.08948612 113.10955138 71.56646633 116.2701025 C71.14849758 118.50057125 71.14849758 118.50057125 69.14849758 120.50057125 C66.69006836 120.69876407 64.34430159 120.77339083 61.88482571 120.75936031 C60.76266911 120.76461727 60.76266911 120.76461727 59.61784267 120.76998043 C57.13838399 120.77880215 54.6592093 120.77294714 52.17974758 120.76619625 C50.46103771 120.76754278 48.74232821 120.7694832 47.02361965 120.77199459 C43.41888718 120.77494645 39.81425372 120.77064626 36.20953274 120.76131344 C31.58220698 120.74991884 26.95511322 120.75647799 22.32779598 120.76845837 C18.77797596 120.77567532 15.22821121 120.7733898 11.67838955 120.76820278 C9.97189717 120.76686583 8.26539981 120.7685156 6.55891323 120.77316189 C4.17652953 120.77822447 1.79452483 120.77052091 -0.58783054 120.75936031 C-1.29750477 120.76340878 -2.00717899 120.76745724 -2.7383585 120.77162838 C-7.62297336 120.72910031 -7.62297336 120.72910031 -9.85150242 118.50057125 C-9.72591588 112.70265945 -7.80828338 109.54103644 -3.97650242 105.43807125 C-2.96895759 104.30603189 -1.96382267 103.17184391 -0.96087742 102.0357275 C-0.44460789 101.45581051 0.07166164 100.87589352 0.60357571 100.27840328 C3.10617915 97.39851101 5.43821772 94.39152505 7.77349758 91.37557125 C11.86371552 86.11890534 16.02922191 80.93895984 20.27349758 75.80525875 C20.89224758 75.04471188 21.51099758 74.284165 22.14849758 73.50057125 C22.67325176 72.88570858 23.19800594 72.27084591 23.73866177 71.63735104 C25.35384336 69.18934444 25.53917215 67.90962094 25.58087063 65.00740719 C25.60066479 64.12679623 25.62045895 63.24618526 25.64085293 62.33888912 C25.64724285 61.39708797 25.65363277 60.45528683 25.66021633 59.48494625 C25.67816753 58.51398006 25.69611874 57.54301388 25.71461391 56.54262447 C25.76874031 53.4453174 25.80262041 50.34816465 25.83599758 47.25057125 C25.86916856 45.14898727 25.90365801 43.04742365 25.93951321 40.94588375 C26.02446831 35.79755755 26.09126866 30.6492773 26.14849758 25.50057125 C25.16977688 25.52151852 24.19105618 25.54246578 23.18267727 25.56404781 C19.54496854 25.63655089 15.90732342 25.68240758 12.26910305 25.72029781 C10.69575154 25.74039005 9.1224745 25.76766924 7.54937649 25.80232906 C5.28535486 25.85095619 3.02232186 25.8735626 0.75787258 25.89119625 C0.05668301 25.91184139 -0.64450657 25.93248653 -1.36694431 25.95375729 C-4.72030616 25.95529144 -6.54998454 25.72006541 -9.29168797 23.72420406 C-11.76512324 20.19813605 -11.47441771 17.18699529 -11.41400242 13.00057125 C-11.43785007 12.24131344 -11.46169773 11.48205563 -11.48626804 10.69979 C-11.48336765 9.59570797 -11.48336765 9.59570797 -11.48040867 8.46932125 C-11.48113377 7.80352047 -11.48185886 7.13771969 -11.48260593 6.45174313 C-9.77895947 1.18460869 -4.97959838 0.00052575 0 0 Z " fill="#020203" transform="translate(91.85150241851807,25.499428749084473)"/>
<path d="M0 0 C108.24 0 216.48 0 328 0 C328 7.59 328 15.18 328 23 C219.76 23 111.52 23 0 23 C0 15.41 0 7.82 0 0 Z " fill="#BB5727" transform="translate(90,294)"/>
<path d="M0 0 C4.29 0 8.58 0 13 0 C12.95617187 1.86785156 12.91234375 3.73570312 12.8671875 5.66015625 C12.8671875 8.12760554 12.86993598 10.59505591 12.875 13.0625 C12.83890625 14.29162109 12.8028125 15.52074219 12.765625 16.78710938 C12.71676129 23.67609587 12.71676129 23.67609587 16.19628906 29.30786133 C18.8258447 31.17546049 18.8258447 31.17546049 21.55908203 32.61083984 C25.99624573 35.13609104 28.07183468 38.89645727 30.11279297 43.52197266 C31.35826863 48.40448401 31.24636787 53.06763691 31.1953125 58.0859375 C31.19329834 59.02348877 31.19128418 59.96104004 31.18920898 60.92700195 C31.17879096 64.40971815 31.15086852 67.89236429 31.125 71.375 C31.08375 79.17125 31.0425 86.9675 31 95 C15.16 95 -0.68 95 -17 95 C-17.0825 87.100625 -17.165 79.20125 -17.25 71.0625 C-17.30462402 67.34818726 -17.30462402 67.34818726 -17.36035156 63.55883789 C-17.37204614 61.57178613 -17.38223614 59.58472471 -17.390625 57.59765625 C-17.41108887 56.5857019 -17.43155273 55.57374756 -17.45263672 54.53112793 C-17.45645665 46.6783139 -15.97800824 40.42703202 -10.74609375 34.40625 C-9.98425781 33.7771875 -9.22242188 33.148125 -8.4375 32.5 C-7.67308594 31.8503125 -6.90867188 31.200625 -6.12109375 30.53125 C-4 29 -4 29 -1 28 C-0.67 18.76 -0.34 9.52 0 0 Z " fill="#030302" transform="translate(233,191)"/>
<path d="M0 0 C108.24 0 216.48 0 328 0 C328 2.97 328 5.94 328 9 C219.76 9 111.52 9 0 9 C0 6.03 0 3.06 0 0 Z " fill="#C7753F" transform="translate(90,294)"/>
<path d="M0 0 C11.55 0 23.1 0 35 0 C35 26.07 35 52.14 35 79 C23.45 79 11.9 79 0 79 C0 52.93 0 26.86 0 0 Z " fill="#AFB0B0" transform="translate(158,398)"/>
<path d="M0 0 C108.57 0 217.14 0 329 0 C329 2.64 329 5.28 329 8 C220.43 8 111.86 8 0 8 C0 5.36 0 2.72 0 0 Z " fill="#5D5D5D" transform="translate(89,35)"/>
<path d="M0 0 C1.35513954 0.00539291 1.35513954 0.00539291 2.73765564 0.01089478 C3.68389801 0.01074875 4.63014038 0.01060272 5.60505676 0.01045227 C8.74880729 0.0111518 11.89249938 0.01894608 15.03623962 0.02676392 C17.20957405 0.02862795 19.3829089 0.03005192 21.5562439 0.03105164 C27.28884533 0.03487795 33.0214216 0.0447092 38.75401306 0.05575562 C44.59873616 0.0659673 50.44346331 0.07054873 56.28819275 0.07559204 C67.76541915 0.08633137 79.24262024 0.10392908 90.71983337 0.12442017 C90.71983337 7.05442017 90.71983337 13.98442017 90.71983337 21.12442017 C78.08987534 21.14696933 65.45993057 21.16533417 52.82995701 21.17623234 C46.96601173 21.18146163 41.10208089 21.18856011 35.23814392 21.19985962 C29.58421626 21.21068686 23.93030251 21.21669665 18.27636528 21.21929741 C16.11409727 21.22115195 13.95183007 21.22477312 11.78956795 21.23015022 C8.7722468 21.23735849 5.75498394 21.2384112 2.73765564 21.23794556 C1.83422928 21.24154083 0.93080292 21.24513611 0 21.24884033 C-6.16611446 21.23847233 -6.16611446 21.23847233 -7.28016663 20.12442017 C-7.37876794 18.72093281 -7.41095599 17.31261539 -7.41297913 15.90567017 C-7.41426819 15.05617798 -7.41555725 14.20668579 -7.41688538 13.33145142 C-7.41301819 12.4381311 -7.409151 11.54481079 -7.40516663 10.62442017 C-7.40903381 9.73109985 -7.412901 8.83777954 -7.41688538 7.91738892 C-7.41559631 7.06789673 -7.41430725 6.21840454 -7.41297913 5.34317017 C-7.4118512 4.55877563 -7.41072327 3.7743811 -7.40956116 2.96621704 C-7.10866726 -1.31669528 -3.4671647 0.00582986 0 0 Z " fill="#676767" transform="translate(133.28016662597656,368.8755798339844)"/>
<path d="M0 0 C26.4 0 52.8 0 80 0 C80 7.92 80 15.84 80 24 C53.6 24 27.2 24 0 24 C0 16.08 0 8.16 0 0 Z " fill="#CA4B4B" transform="translate(116,262)"/>
<path d="M0 0 C1.0442086 0.00303635 1.0442086 0.00303635 2.10951233 0.00613403 C2.83956985 0.00438171 3.56962738 0.00262939 4.32180786 0.00082397 C6.74650924 -0.00359443 9.17113828 -0.00065661 11.59584045 0.00271606 C13.27353428 0.00204302 14.95122802 0.00107299 16.62892151 -0.00018311 C20.14964219 -0.00166006 23.67033755 0.0004944 27.1910553 0.00515747 C31.71419541 0.01085476 36.23727619 0.00757574 40.76041412 0.00158501 C44.22611441 -0.00202067 47.69180052 -0.00088199 51.15750122 0.0017128 C52.8257447 0.00238205 54.49398945 0.00155371 56.16223145 -0.00076675 C58.48974539 -0.00329339 60.81716193 0.00054744 63.14466858 0.00613403 C63.84080765 0.0041098 64.53694672 0.00208557 65.25418091 0 C70.01282772 0.02126583 70.01282772 0.02126583 71.12709045 1.13552856 C71.22569177 2.53901592 71.25787982 3.94733334 71.25990295 5.35427856 C71.26119202 6.20377075 71.26248108 7.05326294 71.2638092 7.92849731 C71.25994202 8.82181763 71.25607483 9.71513794 71.25209045 10.63552856 C71.25595764 11.52884888 71.25982483 12.42216919 71.2638092 13.34255981 C71.26252014 14.192052 71.26123108 15.04154419 71.25990295 15.91677856 C71.25877502 16.7011731 71.25764709 17.48556763 71.25648499 18.29373169 C71.12709045 20.13552856 71.12709045 20.13552856 70.12709045 21.13552856 C67.7899472 21.23576411 65.4823472 21.27172059 63.14466858 21.2649231 C62.41461105 21.26667542 61.68455353 21.26842773 60.93237305 21.27023315 C58.50767167 21.27465156 56.08304263 21.27171373 53.65834045 21.26834106 C51.98064663 21.26901411 50.30295289 21.26998414 48.6252594 21.27124023 C45.10453872 21.27271719 41.58384336 21.27056273 38.06312561 21.26589966 C33.5399855 21.26020237 29.01690472 21.26348138 24.49376678 21.26947212 C21.0280665 21.2730778 17.56238039 21.27193912 14.09667969 21.26934433 C12.42843621 21.26867508 10.76019146 21.26950342 9.09194946 21.27182388 C6.76443552 21.27435052 4.43701898 21.27050969 2.10951233 21.2649231 C1.41337326 21.26694733 0.71723419 21.26897156 0 21.27105713 C-4.75864681 21.2497913 -4.75864681 21.2497913 -5.87290955 20.13552856 C-5.97151086 18.73204121 -6.00369891 17.32372379 -6.00572205 15.91677856 C-6.00701111 15.06728638 -6.00830017 14.21779419 -6.0096283 13.34255981 C-6.00576111 12.4492395 -6.00189392 11.55591919 -5.99790955 10.63552856 C-6.00177673 9.74220825 -6.00564392 8.84888794 -6.0096283 7.92849731 C-6.00833923 7.07900513 -6.00705017 6.22951294 -6.00572205 5.35427856 C-6.00459412 4.56988403 -6.00346619 3.7854895 -6.00230408 2.97732544 C-5.73416801 -0.83931322 -3.23932269 0.01447615 0 0 Z " fill="#676767" transform="translate(309.87290954589844,368.8644714355469)"/>
<path d="M0 0 C6.6 0 13.2 0 20 0 C20 26.07 20 52.14 20 79 C13.4 79 6.8 79 0 79 C0 52.93 0 26.86 0 0 Z " fill="#ACADAD" transform="translate(333,398)"/>
<path d="M0 0 C4.29 0 8.58 0 13 0 C12.95617187 1.86785156 12.91234375 3.73570312 12.8671875 5.66015625 C12.8671875 8.12760554 12.86993598 10.59505591 12.875 13.0625 C12.83890625 14.29162109 12.8028125 15.52074219 12.765625 16.78710938 C12.71676129 23.67609587 12.71676129 23.67609587 16.19628906 29.30786133 C18.8258447 31.17546049 18.8258447 31.17546049 21.55908203 32.61083984 C25.99624573 35.13609104 28.07183468 38.89645727 30.11279297 43.52197266 C31.35826863 48.40448401 31.24636787 53.06763691 31.1953125 58.0859375 C31.19329834 59.02348877 31.19128418 59.96104004 31.18920898 60.92700195 C31.17879096 64.40971815 31.15086852 67.89236429 31.125 71.375 C31.08375 79.17125 31.0425 86.9675 31 95 C15.16 95 -0.68 95 -17 95 C-17.0825 87.100625 -17.165 79.20125 -17.25 71.0625 C-17.30462402 67.34818726 -17.30462402 67.34818726 -17.36035156 63.55883789 C-17.37204614 61.57178613 -17.38223614 59.58472471 -17.390625 57.59765625 C-17.41108887 56.5857019 -17.43155273 55.57374756 -17.45263672 54.53112793 C-17.45645665 46.6783139 -15.97800824 40.42703202 -10.74609375 34.40625 C-9.98425781 33.7771875 -9.22242188 33.148125 -8.4375 32.5 C-7.67308594 31.8503125 -6.90867188 31.200625 -6.12109375 30.53125 C-4 29 -4 29 -1 28 C-0.67 18.76 -0.34 9.52 0 0 Z M-12 46 C-12.68084519 49.19081392 -12.63074081 52.2834051 -12.55859375 55.53515625 C-12.55626236 56.4508287 -12.55393097 57.36650116 -12.55152893 58.30992126 C-12.54180788 60.24064484 -12.52005859 62.17134059 -12.48706055 64.10180664 C-12.43760996 67.05593105 -12.42557572 70.00838945 -12.41992188 72.96289062 C-12.40583656 74.84116354 -12.38963239 76.71942201 -12.37109375 78.59765625 C-12.36573105 79.48002457 -12.36036835 80.36239288 -12.35484314 81.27149963 C-12.33885574 82.09593063 -12.32286835 82.92036163 -12.30639648 83.76977539 C-12.29575668 84.49193741 -12.28511688 85.21409943 -12.27415466 85.95814514 C-11.95484719 88.33629007 -11.23337504 89.95031684 -10 92 C-5.15075766 95.39372806 1.28152267 94.36884216 6.9375 94.375 C8.11763672 94.39949219 9.29777344 94.42398438 10.51367188 94.44921875 C11.65255859 94.45308594 12.79144531 94.45695312 13.96484375 94.4609375 C15.0024585 94.46915527 16.04007324 94.47737305 17.10913086 94.48583984 C20.72231261 93.87860805 22.3827813 92.51049489 25 90 C26.69664182 86.60671636 26.20660084 82.74640106 26.23828125 79.01171875 C26.246353 78.11636917 26.25442474 77.22101959 26.26274109 76.29853821 C26.2765843 74.40127501 26.28730539 72.50398687 26.29516602 70.60668945 C26.31237046 67.70931606 26.35625277 64.81308621 26.40039062 61.91601562 C26.41051832 60.07292506 26.41903418 58.22982479 26.42578125 56.38671875 C26.44328934 55.52197433 26.46079742 54.65722992 26.47883606 53.76628113 C26.46417644 49.68735051 26.32413652 47.53299867 24.16088867 43.97583008 C19.28430086 39.51687344 12.35844855 40.6991275 6.125 40.625 C4.94035156 40.58761719 3.75570312 40.55023438 2.53515625 40.51171875 C1.39175781 40.50011719 0.24835938 40.48851562 -0.9296875 40.4765625 C-1.97366699 40.45674316 -3.01764648 40.43692383 -4.09326172 40.41650391 C-8.22324518 41.24555316 -9.58159379 42.56317333 -12 46 Z " fill="#939350" transform="translate(233,191)"/>
<path d="M0 0 C108.24 0 216.48 0 328 0 C327.67 1.32 327.34 2.64 327 4 C219.42 4 111.84 4 1 4 C0.67 2.68 0.34 1.36 0 0 Z " fill="#8D8D8D" transform="translate(90,35)"/>
<path d="M0 0 C2.475 0.495 2.475 0.495 5 1 C7.31104879 1.09190136 9.62463011 1.13002252 11.9375 1.125 C13.71447266 1.12886719 13.71447266 1.12886719 15.52734375 1.1328125 C19.44173459 1.05647532 19.44173459 1.05647532 25 0 C25 15.18 25 30.36 25 46 C16.75 46 8.5 46 0 46 C0 30.82 0 15.64 0 0 Z " fill="#F3AF13" transform="translate(345,240)"/>
<path d="M0 0 C4.29831498 4.12023037 8.05486269 8.57381479 11.8125 13.1875 C12.42689941 13.939104 13.04129883 14.69070801 13.67431641 15.46508789 C14.8934268 16.95805642 16.11123736 18.45208745 17.32763672 19.94726562 C18.77612715 21.72520833 20.2318322 23.49678575 21.69140625 25.265625 C22.41199219 26.14734375 23.13257813 27.0290625 23.875 27.9375 C24.49117187 28.68902344 25.10734375 29.44054687 25.7421875 30.21484375 C27 32 27 32 27 34 C9.18 34 -8.64 34 -27 34 C-23.26842034 29.02456046 -19.53400908 24.07156358 -15.6875 19.1875 C-14.98681396 18.29671753 -14.98681396 18.29671753 -14.27197266 17.38793945 C-2.63297825 2.63297825 -2.63297825 2.63297825 0 0 Z " fill="#9493C6" transform="translate(122,103)"/>
<path d="M0 0 C3.65317954 3.56102727 7.03634141 7.27494424 10.3125 11.1875 C10.78888916 11.75412354 11.26527832 12.32074707 11.75610352 12.90454102 C17.49155072 19.74877076 23.04140222 26.56210333 28 34 C10.18 34 -7.64 34 -26 34 C-24.08307512 30.16615025 -21.84083107 27.06841899 -19.1875 23.75 C-18.7133667 23.15171387 -18.2392334 22.55342773 -17.75073242 21.93701172 C-11.89781087 14.57326157 -5.9507645 7.28471965 0 0 Z " fill="#9493C6" transform="translate(297,103)"/>
<path d="M0 0 C7.26 0 14.52 0 22 0 C22 12.21 22 24.42 22 37 C14.74 37 7.48 37 0 37 C0 24.79 0 12.58 0 0 Z " fill="#CAC7E1" transform="translate(229,240)"/>
<path d="M0 0 C3.48010634 1.16003545 3.88745872 1.89974813 5.85546875 4.8671875 C6.39212158 5.66584229 6.92877441 6.46449707 7.48168945 7.28735352 C8.04460693 8.14127686 8.60752441 8.9952002 9.1875 9.875 C10.35016945 11.61161054 11.51422819 13.34729178 12.6796875 15.08203125 C13.24526367 15.92588379 13.81083984 16.76973633 14.39355469 17.63916016 C17.04650073 21.53794256 19.8617564 25.30595021 22.70703125 29.06640625 C24 31 24 31 24 33 C8.82 33 -6.36 33 -22 33 C-20.5028402 29.25710051 -19.48799712 27.02049305 -17.20703125 23.92578125 C-16.66199951 23.17989746 -16.11696777 22.43401367 -15.55541992 21.66552734 C-14.98025635 20.88902832 -14.40509277 20.1125293 -13.8125 19.3125 C-12.63748687 17.70742201 -11.46300405 16.10195565 -10.2890625 14.49609375 C-9.72348633 13.72507324 -9.15791016 12.95405273 -8.57519531 12.15966797 C-5.65194976 8.15175876 -2.81989197 4.08115274 0 0 Z " fill="#9493C6" transform="translate(392,104)"/>
<path d="M0 0 C5.94 0 11.88 0 18 0 C18 11.55 18 23.1 18 35 C12.06 35 6.12 35 0 35 C0 23.45 0 11.9 0 0 Z " fill="#F6B113" transform="translate(297,251)"/>
<path d="M0 0 C0.66 0.33 1.32 0.66 2 1 C1.98428955 1.62342285 1.9685791 2.2468457 1.95239258 2.88916016 C1.70894356 14.03850884 1.48573143 24.60323969 4.34375 35.453125 C5 38 5 38 5 41 C4.18015625 41.02578125 3.3603125 41.0515625 2.515625 41.078125 C0.89914063 41.16320312 0.89914063 41.16320312 -0.75 41.25 C-1.81734375 41.29640625 -2.8846875 41.3428125 -3.984375 41.390625 C-7.77286846 42.15617549 -8.74131826 42.86442535 -11 46 C-11.56690936 49.14790467 -11.48885518 52.24741381 -11.42578125 55.4375 C-11.42249313 56.3545874 -11.41920502 57.2716748 -11.41581726 58.21655273 C-11.40540513 60.15322985 -11.38546992 62.08987594 -11.35668945 64.02636719 C-11.31266188 66.98910695 -11.29525795 69.95103623 -11.28320312 72.9140625 C-11.26977641 74.79688667 -11.25485271 76.67970088 -11.23828125 78.5625 C-11.23089432 79.44800537 -11.22350739 80.33351074 -11.21589661 81.24584961 C-11.20306137 82.0735083 -11.19022614 82.90116699 -11.17700195 83.75390625 C-11.16715775 84.47908447 -11.15731354 85.2042627 -11.14717102 85.95141602 C-10.99518137 88.06707414 -10.57450566 89.96180747 -10 92 C-6.61266181 93.03333902 -3.55077256 93.10140877 -0.01953125 93.0625 C1.14513672 93.05476563 2.30980469 93.04703125 3.50976562 93.0390625 C5.9420595 93.01322826 8.37435122 92.98718995 10.80664062 92.9609375 C12.56331055 92.94933594 12.56331055 92.94933594 14.35546875 92.9375 C15.94331177 92.92009766 15.94331177 92.92009766 17.56323242 92.90234375 C21.72325752 93.02055147 25.86374988 93.54041665 30 94 C30 78.49 30 62.98 30 47 C30.33 47 30.66 47 31 47 C31 62.84 31 78.68 31 95 C15.16 95 -0.68 95 -17 95 C-17.0825 87.100625 -17.165 79.20125 -17.25 71.0625 C-17.30462402 67.34818726 -17.30462402 67.34818726 -17.36035156 63.55883789 C-17.37204614 61.57178613 -17.38223614 59.58472471 -17.390625 57.59765625 C-17.41108887 56.5857019 -17.43155273 55.57374756 -17.45263672 54.53112793 C-17.45645665 46.6783139 -15.97800824 40.42703202 -10.74609375 34.40625 C-9.98425781 33.7771875 -9.22242188 33.148125 -8.4375 32.5 C-7.67308594 31.8503125 -6.90867188 31.200625 -6.12109375 30.53125 C-4 29 -4 29 -1 28 C-0.67 18.76 -0.34 9.52 0 0 Z " fill="#6D6D2D" transform="translate(233,191)"/>
<path d="M0 0 C2.44698118 1.49899815 3.81934598 2.80387628 4.86328125 5.48828125 C4.90453125 6.06578125 4.94578125 6.64328125 4.98828125 7.23828125 C0.08722072 11.71925087 -4.40709137 11.8823886 -10.9296875 11.7109375 C-15.3645921 11.03080638 -17.10002064 9.56593624 -20.01171875 6.23828125 C-19.06080202 3.73131896 -18.07370497 2.2942688 -16.07421875 0.48828125 C-11.01456286 -1.57688442 -5.18576879 -1.96354352 0 0 Z " fill="#B07C2A" transform="translate(365.01171875,222.76171875)"/>
<path d="M0 0 C0.845625 0.495 1.69125 0.99 2.5625 1.5 C2.25 3.4375 2.25 3.4375 1.5625 5.5 C-1.48690673 6.51646891 -3.74119903 6.69844676 -6.9375 6.75 C-7.8965625 6.77578125 -8.855625 6.8015625 -9.84375 6.828125 C-12.80193253 6.45389709 -13.63863073 5.80935919 -15.4375 3.5 C-14.4375 0.5 -14.4375 0.5 -12.8125 -0.6875 C-8.13738891 -2.28688011 -4.49459343 -1.96127713 0 0 Z " fill="#AC7929" transform="translate(312.4375,237.5)"/>
<path d="M0 0 C1.32 0.66 2.64 1.32 4 2 C4 7.28 4 12.56 4 18 C1.03 18 -1.94 18 -5 18 C-4.360625 17.2575 -3.72125 16.515 -3.0625 15.75 C0.12829467 11.08219437 -0.17712346 5.47311493 0 0 Z " fill="#7B7B31" transform="translate(259,267)"/>
<path d="M0 0 C0.66 1.32 1.32 2.64 2 4 C0 6 0 6 -1.875 6.23046875 C-2.926875 6.20919922 -2.926875 6.20919922 -4 6.1875 C-4.70125 6.18105469 -5.4025 6.17460937 -6.125 6.16796875 C-8 6 -8 6 -10 5 C-10 3.68 -10 2.36 -10 1 C-6.78548731 -0.60725635 -3.56387464 -0.05748185 0 0 Z " fill="#636363" transform="translate(244,178)"/>
</svg>
